<?xml version="1.0" encoding="utf-8"?>
<!-- Generator: Adobe Illustrator 22.1.0, SVG Export Plug-In . SVG Version: 6.00 Build 0)  -->
<svg version="1.1" xmlns="http://www.w3.org/2000/svg" xmlns:xlink="http://www.w3.org/1999/xlink" x="0px" y="0px"
	 viewBox="0 0 1280 1024" style="enable-background:new 0 0 1280 1024;" xml:space="preserve">
<style type="text/css">
	.st0{display:none;}
	.st1{display:inline;}
	.st2{fill:#FFFFFF;}
	.st3{fill:#939393;}
	.st4{fill:#AFAFAF;}
	.st5{display:inline;fill:#939393;}
</style>
<g id="Layer_1" class="st0">
	<g class="st1">
		<rect x="0.5" y="0.5" width="1279" height="1023"/>
		<path class="st2" d="M1279,1v1022H1V1H1279 M1280,0H0v1024h1280V0L1280,0z"/>
	</g>
</g>
<g id="Astroid" class="st0">
	<g class="st1">
		<path class="st3" d="M707.5,891.7c-78-11.8-149.5-51.3-201.5-111.2c-52.6-60.6-81.5-138.2-81.5-218.5s29-157.9,81.5-218.5
			c52-59.9,123.5-99.4,201.5-111.2c78,11.8,149.5,51.3,201.5,111.2c52.6,60.6,81.5,138.2,81.5,218.5s-29,157.9-81.5,218.5
			C857,840.4,785.5,879.9,707.5,891.7z"/>
		<g>
			<path class="st4" d="M707.5,234.8c77.2,11.8,148.1,51,199.6,110.3c25.6,29.5,45.5,62.8,59.4,99.1C980.7,481.8,988,521.4,988,562
				s-7.3,80.2-21.6,117.8c-13.8,36.3-33.8,69.6-59.4,99.1c-51.5,59.3-122.4,98.5-199.6,110.3c-77.2-11.8-148.1-51-199.6-110.3
				c-25.6-29.5-45.5-62.8-59.4-99.1C434.3,642.2,427,602.6,427,562s7.3-80.2,21.6-117.8c13.8-36.3,33.8-69.6,59.4-99.1
				C559.4,285.8,630.3,246.7,707.5,234.8 M707.5,229.8C545.9,254.1,422,393.6,422,562s123.9,307.9,285.5,332.2
				C869.1,869.9,993,730.4,993,562S869.1,254.1,707.5,229.8L707.5,229.8z"/>
		</g>
	</g>
	<g class="st1">
		<ellipse class="st4" cx="707.5" cy="562" rx="285.5" ry="332.2"/>
	</g>
	<g class="st1">
		<circle class="st3" cx="653" cy="402" r="46.5"/>
		<path class="st4" d="M653,358c24.3,0,44,19.7,44,44s-19.7,44-44,44s-44-19.7-44-44S628.7,358,653,358 M653,353
			c-27.1,0-49,21.9-49,49s21.9,49,49,49s49-21.9,49-49S680.1,353,653,353L653,353z"/>
	</g>
	<g class="st1">
		<circle class="st3" cx="517" cy="532" r="19.5"/>
		<path class="st4" d="M517,515c9.4,0,17,7.6,17,17s-7.6,17-17,17s-17-7.6-17-17S507.6,515,517,515 M517,510c-12.2,0-22,9.8-22,22
			s9.8,22,22,22s22-9.8,22-22S529.2,510,517,510L517,510z"/>
	</g>
	<g class="st1">
		<circle class="st3" cx="860" cy="447" r="15.5"/>
		<path class="st4" d="M860,434c7.2,0,13,5.8,13,13s-5.8,13-13,13s-13-5.8-13-13S852.8,434,860,434 M860,429c-9.9,0-18,8.1-18,18
			s8.1,18,18,18s18-8.1,18-18S869.9,429,860,429L860,429z"/>
	</g>
	<g class="st1">
		<circle class="st3" cx="611.5" cy="706.5" r="26"/>
		<path class="st4" d="M611.5,683c13,0,23.5,10.5,23.5,23.5S624.5,730,611.5,730S588,719.5,588,706.5S598.5,683,611.5,683
			 M611.5,678c-15.7,0-28.5,12.8-28.5,28.5s12.8,28.5,28.5,28.5s28.5-12.8,28.5-28.5S627.2,678,611.5,678L611.5,678z"/>
	</g>
	<g class="st1">
		<circle class="st3" cx="406" cy="499" r="27.3"/>
		<g>
			<path class="st4" d="M406,473.5c14.1,0,25.5,11.4,25.5,25.5c0,14.1-11.4,25.5-25.5,25.5s-25.5-11.4-25.5-25.5
				C380.5,484.9,391.9,473.5,406,473.5 M406,470c-16,0-29,13-29,29c0,16,13,29,29,29s29-13,29-29C435,483,422,470,406,470L406,470z"
				/>
		</g>
	</g>
	<g class="st1">
		<circle class="st3" cx="440.5" cy="677.5" r="32.8"/>
		<g>
			<path class="st4" d="M440.5,646.5c17.1,0,31,13.9,31,31s-13.9,31-31,31s-31-13.9-31-31S423.4,646.5,440.5,646.5 M440.5,643
				c-19.1,0-34.5,15.4-34.5,34.5s15.4,34.5,34.5,34.5s34.5-15.4,34.5-34.5S459.6,643,440.5,643L440.5,643z"/>
		</g>
	</g>
	<g class="st1">
		<circle class="st3" cx="846.5" cy="764.5" r="20"/>
		<path class="st4" d="M846.5,747c9.6,0,17.5,7.9,17.5,17.5s-7.9,17.5-17.5,17.5s-17.5-7.9-17.5-17.5S836.9,747,846.5,747
			 M846.5,742c-12.4,0-22.5,10.1-22.5,22.5s10.1,22.5,22.5,22.5s22.5-10.1,22.5-22.5S858.9,742,846.5,742L846.5,742z"/>
	</g>
	<g class="st1">
		<circle class="st3" cx="733" cy="580" r="23.5"/>
		<path class="st4" d="M733,559c11.6,0,21,9.4,21,21s-9.4,21-21,21s-21-9.4-21-21S721.4,559,733,559 M733,554c-14.4,0-26,11.6-26,26
			s11.6,26,26,26s26-11.6,26-26S747.4,554,733,554L733,554z"/>
	</g>
	<g class="st1">
		<circle class="st3" cx="488" cy="353" r="18.3"/>
		<g>
			<path class="st4" d="M488,336.5c9.1,0,16.5,7.4,16.5,16.5s-7.4,16.5-16.5,16.5s-16.5-7.4-16.5-16.5S478.9,336.5,488,336.5
				 M488,333c-11,0-20,9-20,20s9,20,20,20s20-9,20-20S499,333,488,333L488,333z"/>
		</g>
	</g>
	<polygon class="st5" points="603.5,245.5 559.5,254.5 508.5,291.5 468.5,297.5 455.5,332.5 435.5,383.5 406.5,393.5 395.5,438.5 
		365.5,469.5 353.5,531.5 365.5,572.5 397.5,593.5 386.5,651.5 394.5,706.5 413.5,728.5 428.5,758.5 474.5,786.5 478.5,810.5 
		517.5,834.5 539.5,834.5 583.5,872.5 628.5,884.5 656.5,884.5 640.5,801.5 568.5,752.5 554.5,687.5 631.5,553.5 495.5,632.5 
		458.5,593.5 460.5,498.5 505.5,464.5 495.5,420.5 539.5,428.5 569.5,480.5 583.5,446.5 563.5,411.5 539.5,393.5 553.5,339.5 
		653.5,299.5 604.5,302.5 617.5,273.5 663.5,239.5 640.5,239.5 	"/>
</g>
<g id="Darkside" class="st0">
	<g class="st1">
		<path class="st3" d="M707.5,891.7c-78-11.8-149.5-51.3-201.5-111.2c-52.6-60.6-81.5-138.2-81.5-218.5s29-157.9,81.5-218.5
			c52-59.9,123.5-99.4,201.5-111.2c78,11.8,149.5,51.3,201.5,111.2c52.6,60.6,81.5,138.2,81.5,218.5s-29,157.9-81.5,218.5
			C857,840.4,785.5,879.9,707.5,891.7z"/>
		<g>
			<path class="st4" d="M707.5,234.8c77.2,11.8,148.1,51,199.6,110.3c25.6,29.5,45.5,62.8,59.4,99.1C980.7,481.8,988,521.4,988,562
				s-7.3,80.2-21.6,117.8c-13.8,36.3-33.8,69.6-59.4,99.1c-51.5,59.3-122.4,98.5-199.6,110.3c-77.2-11.8-148.1-51-199.6-110.3
				c-25.6-29.5-45.5-62.8-59.4-99.1C434.3,642.2,427,602.6,427,562s7.3-80.2,21.6-117.8c13.8-36.3,33.8-69.6,59.4-99.1
				C559.4,285.8,630.3,246.7,707.5,234.8 M707.5,229.8C545.9,254.1,422,393.6,422,562s123.9,307.9,285.5,332.2
				C869.1,869.9,993,730.4,993,562S869.1,254.1,707.5,229.8L707.5,229.8z"/>
		</g>
	</g>
	<g class="st1">
		<rect x="533.5" y="-154.5" class="st2" width="140" height="140"/>
		<path d="M673-154v139H534v-139H673 M674-155H533v141h141V-155L674-155z"/>
	</g>
	<g class="st1">
		<rect x="728" y="-159" class="st4" width="141" height="141"/>
	</g>
	<g class="st1">
		<rect x="901.5" y="-156.5" class="st3" width="136" height="136"/>
		<g>
			<path class="st4" d="M1035-154v131H904v-131H1035 M1040-159H899v141h141V-159L1040-159z"/>
		</g>
	</g>
	<g class="st1">
		<ellipse class="st4" cx="707.5" cy="562" rx="285.5" ry="332.2"/>
	</g>
	<g class="st1">
		<circle class="st3" cx="653" cy="402" r="46.5"/>
		<path class="st4" d="M653,358c24.3,0,44,19.7,44,44s-19.7,44-44,44s-44-19.7-44-44S628.7,358,653,358 M653,353
			c-27.1,0-49,21.9-49,49s21.9,49,49,49s49-21.9,49-49S680.1,353,653,353L653,353z"/>
	</g>
	<g class="st1">
		<circle class="st3" cx="517" cy="532" r="19.5"/>
		<path class="st4" d="M517,515c9.4,0,17,7.6,17,17s-7.6,17-17,17s-17-7.6-17-17S507.6,515,517,515 M517,510c-12.2,0-22,9.8-22,22
			s9.8,22,22,22s22-9.8,22-22S529.2,510,517,510L517,510z"/>
	</g>
	<g class="st1">
		<circle class="st3" cx="860" cy="447" r="15.5"/>
		<path class="st4" d="M860,434c7.2,0,13,5.8,13,13s-5.8,13-13,13s-13-5.8-13-13S852.8,434,860,434 M860,429c-9.9,0-18,8.1-18,18
			s8.1,18,18,18s18-8.1,18-18S869.9,429,860,429L860,429z"/>
	</g>
	<g class="st1">
		<circle class="st3" cx="611.5" cy="706.5" r="26"/>
		<path class="st4" d="M611.5,683c13,0,23.5,10.5,23.5,23.5S624.5,730,611.5,730S588,719.5,588,706.5S598.5,683,611.5,683
			 M611.5,678c-15.7,0-28.5,12.8-28.5,28.5s12.8,28.5,28.5,28.5s28.5-12.8,28.5-28.5S627.2,678,611.5,678L611.5,678z"/>
	</g>
	<g class="st1">
		<circle class="st3" cx="846.5" cy="764.5" r="20"/>
		<path class="st4" d="M846.5,747c9.6,0,17.5,7.9,17.5,17.5s-7.9,17.5-17.5,17.5s-17.5-7.9-17.5-17.5S836.9,747,846.5,747
			 M846.5,742c-12.4,0-22.5,10.1-22.5,22.5s10.1,22.5,22.5,22.5s22.5-10.1,22.5-22.5S858.9,742,846.5,742L846.5,742z"/>
	</g>
	<g class="st1">
		<circle class="st3" cx="733" cy="580" r="23.5"/>
		<path class="st4" d="M733,559c11.6,0,21,9.4,21,21s-9.4,21-21,21s-21-9.4-21-21S721.4,559,733,559 M733,554c-14.4,0-26,11.6-26,26
			s11.6,26,26,26s26-11.6,26-26S747.4,554,733,554L733,554z"/>
	</g>
</g>
<g id="Broken" class="st0">
	<g class="st1">
		<path class="st3" d="M657,895.5c-89.1,0-172.8-34.7-235.8-97.7S323.5,651.1,323.5,562s34.7-172.8,97.7-235.8
			s146.7-97.7,235.8-97.7c11.3,0,22.5,0.6,33.7,1.7C535,261.7,419.5,401.5,419.5,562c0,160.5,115.5,300.3,271.2,331.8
			C679.5,894.9,668.3,895.5,657,895.5z"/>
		<path class="st4" d="M657,231c5.7,0,11.4,0.1,17.1,0.4C525.4,269.3,417,405.9,417,562s108.4,292.7,257.1,330.6
			c-5.7,0.3-11.4,0.4-17.1,0.4c-44.7,0-88-8.8-128.8-26c-39.4-16.7-74.8-40.5-105.2-70.9s-54.3-65.8-70.9-105.2
			c-17.3-40.8-26-84.2-26-128.8s8.8-88,26-128.8c16.7-39.4,40.5-74.8,70.9-105.2s65.8-54.3,105.2-70.9C569,239.8,612.3,231,657,231
			 M657,226c-185.6,0-336,150.4-336,336s150.4,336,336,336c17.2,0,34-1.3,50.5-3.8C545.9,869.9,422,730.4,422,562
			s123.9-307.9,285.5-332.2C691,227.3,674.2,226,657,226L657,226z"/>
	</g>
	<polygon class="st5" points="603.5,245.5 559.5,254.5 508.5,291.5 468.5,297.5 455.5,332.5 435.5,383.5 406.5,393.5 395.5,438.5 
		365.5,469.5 353.5,531.5 365.5,572.5 354,619 386.5,651.5 394.5,706.5 413.5,728.5 428.5,758.5 474.5,786.5 478.5,810.5 
		517.5,834.5 539.5,834.5 583.5,872.5 628.5,884.5 612,841 640.5,801.5 568.5,752.5 554.5,687.5 631.5,553.5 495.5,632.5 
		458.5,593.5 460.5,498.5 505.5,464.5 495.5,420.5 539.5,428.5 569.5,480.5 583.5,446.5 563.5,411.5 539.5,393.5 553.5,339.5 
		653.5,299.5 604.5,302.5 617.5,273.5 663.5,239.5 640.5,239.5 	"/>
</g>
<g id="Crater" class="st0">
	<g class="st1">
		<circle class="st3" cx="406" cy="499" r="27.3"/>
		<g>
			<path class="st4" d="M406,473.5c14.1,0,25.5,11.4,25.5,25.5c0,14.1-11.4,25.5-25.5,25.5s-25.5-11.4-25.5-25.5
				C380.5,484.9,391.9,473.5,406,473.5 M406,470c-16,0-29,13-29,29c0,16,13,29,29,29s29-13,29-29C435,483,422,470,406,470L406,470z"
				/>
		</g>
	</g>
	<g class="st1">
		<circle class="st3" cx="440.5" cy="677.5" r="32.8"/>
		<g>
			<path class="st4" d="M440.5,646.5c17.1,0,31,13.9,31,31s-13.9,31-31,31s-31-13.9-31-31S423.4,646.5,440.5,646.5 M440.5,643
				c-19.1,0-34.5,15.4-34.5,34.5s15.4,34.5,34.5,34.5s34.5-15.4,34.5-34.5S459.6,643,440.5,643L440.5,643z"/>
		</g>
	</g>
	<g class="st1">
		<circle class="st3" cx="488" cy="353" r="18.3"/>
		<g>
			<path class="st4" d="M488,336.5c9.1,0,16.5,7.4,16.5,16.5s-7.4,16.5-16.5,16.5s-16.5-7.4-16.5-16.5S478.9,336.5,488,336.5
				 M488,333c-11,0-20,9-20,20s9,20,20,20s20-9,20-20S499,333,488,333L488,333z"/>
		</g>
	</g>
</g>
<g id="Moon_Group">
	<g>
		
			<image style="overflow:visible;opacity:0.9;" width="854" height="854" xlink:href="6ACEEE57.png"  transform="matrix(1 0 0 1 230 135)">
		</image>
		<g>
			<g>
				<g>
					<path class="st3" d="M743.2,842.4c-55.8,0-111.2-14.1-160.2-40.8c-50.5-27.5-93.3-68.1-123.7-117.3
						C417,616,400.8,534.7,413.7,455.6c12.7-78.3,52.8-149.5,112.9-200.5c41.3-17.6,85.1-26.6,130.1-26.6
						c55.8,0,111.2,14.1,160.2,40.8c50.5,27.5,93.3,68.1,123.7,117.3c42.2,68.3,58.4,149.5,45.6,228.7
						c-12.7,78.3-52.8,149.5-112.9,200.5C832,833.5,788.2,842.4,743.2,842.4z"/>
					<g>
						<path class="st4" d="M656.7,231c55.4,0,110.4,14,159,40.5c24.7,13.4,47.5,30,68,49.2c21.1,19.8,39.5,42.4,54.9,67.2
							c21.3,34.5,36,72,43.6,111.5c7.3,38.1,7.9,77,1.6,115.5c-12.6,77.5-52.3,148.1-111.7,198.8c-40.9,17.4-84.2,26.2-128.8,26.2
							c-55.4,0-110.4-14-159-40.5c-24.7-13.4-47.5-30-68-49.2c-21.1-19.8-39.5-42.4-54.9-67.2c-21.3-34.5-36-72-43.6-111.5
							c-7.3-38.1-7.9-77-1.6-115.5c12.6-77.5,52.3-148.1,111.7-198.8C568.8,239.8,612.1,231,656.7,231L656.7,231 M656.7,226
							c-44.3,0-89,8.8-131.4,26.9c-124.6,105.7-156.7,289.5-68.1,432.7c63.6,102.8,173.5,159.3,286.1,159.3
							c44.3,0,89-8.8,131.4-26.9c124.6-105.7,156.7-289.5,68.1-432.7C879.2,282.5,769.3,226,656.7,226L656.7,226z"/>
					</g>
				</g>
				<g>
					
						<ellipse transform="matrix(0.8505 -0.5259 0.5259 0.8505 -176.9782 448.1248)" class="st4" cx="700" cy="535.4" rx="285.5" ry="332.2"/>
				</g>
				<g>
					<path class="st3" d="M569.5,474.5c-16.3,0-31.1-8.2-39.6-22.1c-13.5-21.8-6.7-50.5,15.1-64c7.4-4.6,15.8-7,24.4-7
						c16.3,0,31.1,8.2,39.6,22.1c6.5,10.6,8.6,23,5.7,35.1c-2.9,12.1-10.2,22.3-20.8,28.9C586.5,472.1,578.1,474.5,569.5,474.5z"/>
					<path class="st4" d="M569.4,379l0,5h0c15.4,0,29.4,7.8,37.5,20.9c6.2,10,8.1,21.8,5.4,33.2c-2.7,11.4-9.7,21.1-19.7,27.3
						c-7,4.3-15,6.6-23.1,6.6c-15.4,0-29.4-7.8-37.5-20.9c-6.2-10-8.1-21.8-5.4-33.2c2.7-11.4,9.7-21.1,19.7-27.3
						c7-4.3,14.9-6.6,23.1-6.6L569.4,379 M569.4,379c-8.8,0-17.7,2.4-25.7,7.3c-23,14.2-30.1,44.4-15.9,67.4
						c9.3,15,25.3,23.2,41.7,23.2c8.8,0,17.7-2.4,25.7-7.3c23-14.2,30.1-44.4,15.9-67.4C601.9,387.3,585.8,379,569.4,379L569.4,379z
						"/>
				</g>
				<g>
					<path class="st3" d="M522.2,629.6c-6.8,0-13-3.5-16.6-9.2c-5.7-9.1-2.8-21.2,6.3-26.8c3.1-1.9,6.6-2.9,10.2-2.9
						c6.8,0,13,3.5,16.6,9.2c5.7,9.1,2.8,21.2-6.3,26.8C529.3,628.6,525.8,629.6,522.2,629.6z"/>
					<path class="st4" d="M522.1,593.1L522.1,593.1c5.9,0,11.4,3,14.5,8.1c4.9,8,2.5,18.5-5.5,23.4c-2.7,1.7-5.8,2.5-8.9,2.5
						c-5.9,0-11.4-3-14.5-8.1c-2.4-3.9-3.1-8.4-2.1-12.8c1-4.4,3.7-8.2,7.6-10.6C515.9,594,519,593.1,522.1,593.1 M522.1,588.1
						c-3.9,0-7.9,1.1-11.5,3.3c-10.3,6.4-13.5,19.9-7.1,30.3c4.2,6.7,11.4,10.4,18.7,10.4c3.9,0,7.9-1.1,11.5-3.3
						c10.3-6.4,13.5-19.9,7.1-30.3C536.7,591.8,529.5,588.1,522.1,588.1L522.1,588.1z"/>
				</g>
				<g>
					<path class="st3" d="M769.2,372.9c-5.4,0-10.4-2.7-13.2-7.4c-2.2-3.5-2.9-7.7-1.9-11.7c1-4,3.4-7.4,6.9-9.6
						c2.5-1.5,5.3-2.3,8.1-2.3c5.4,0,10.4,2.7,13.2,7.4c2.2,3.5,2.9,7.7,1.9,11.7c-1,4-3.4,7.4-6.9,9.6
						C774.9,372.1,772.1,372.9,769.2,372.9z"/>
					<path class="st4" d="M769.2,344.4L769.2,344.4c4.5,0,8.7,2.3,11.1,6.2c1.8,3,2.4,6.4,1.6,9.8c-0.8,3.4-2.9,6.2-5.8,8.1
						c-2.1,1.3-4.4,1.9-6.8,1.9c-4.5,0-8.7-2.3-11.1-6.2c-1.8-3-2.4-6.4-1.6-9.8c0.8-3.4,2.9-6.2,5.8-8.1
						C764.4,345.1,766.8,344.4,769.2,344.4 M769.2,339.4c-3.2,0-6.5,0.9-9.4,2.7c-8.5,5.2-11.1,16.3-5.8,24.8
						c3.4,5.5,9.3,8.5,15.3,8.5c3.2,0,6.5-0.9,9.4-2.7c8.5-5.2,11.1-16.3,5.8-24.8C781.1,342.5,775.2,339.4,769.2,339.4L769.2,339.4
						z"/>
				</g>
				<g>
					<path class="st3" d="M694.3,734.8c-9.1,0-17.4-4.6-22.1-12.3c-3.7-5.9-4.8-12.9-3.2-19.6c1.6-6.8,5.7-12.5,11.6-16.1
						c4.1-2.5,8.8-3.9,13.6-3.9c9.1,0,17.4,4.6,22.1,12.3c3.7,5.9,4.8,12.9,3.2,19.6c-1.6,6.8-5.7,12.5-11.6,16.1
						C703.9,733.5,699.1,734.8,694.3,734.8z"/>
					<path class="st4" d="M694.3,680.3v5c8.2,0,15.7,4.2,20,11.1c3.3,5.3,4.3,11.6,2.9,17.8s-5.2,11.3-10.5,14.6
						c-3.7,2.3-8,3.5-12.3,3.5c-8.2,0-15.7-4.2-20-11.1c-6.8-11-3.4-25.5,7.6-32.3c3.7-2.3,8-3.5,12.3-3.5L694.3,680.3 M694.3,680.3
						c-5.1,0-10.3,1.4-15,4.3c-13.4,8.3-17.5,25.8-9.3,39.2c5.4,8.7,14.7,13.5,24.3,13.5c5.1,0,10.3-1.4,15-4.3
						c13.4-8.3,17.5-25.8,9.3-39.2C713.1,685.1,703.8,680.3,694.3,680.3L694.3,680.3z"/>
				</g>
				<g>
					<path class="st3" d="M924.7,654.6c-7,0-13.4-3.5-17-9.5c-5.8-9.4-2.9-21.7,6.5-27.5c3.2-2,6.8-3,10.5-3c7,0,13.4,3.5,17,9.5
						c2.8,4.5,3.7,9.9,2.5,15.1c-1.2,5.2-4.4,9.6-8.9,12.4C932,653.5,928.4,654.6,924.7,654.6z"/>
					<path class="st4" d="M924.7,617.1L924.7,617.1c6.1,0,11.7,3.1,14.9,8.3c2.5,4,3.2,8.7,2.1,13.2c-1.1,4.5-3.9,8.4-7.8,10.9
						c-2.8,1.7-5.9,2.6-9.2,2.6c-6.1,0-11.7-3.1-14.9-8.3c-5.1-8.2-2.5-19,5.7-24.1C918.2,618,921.4,617.1,924.7,617.1 M924.7,612.1
						c-4,0-8.1,1.1-11.8,3.4c-10.6,6.5-13.8,20.4-7.3,31c4.3,6.9,11.6,10.7,19.2,10.7c4,0,8.1-1.1,11.8-3.4
						c10.6-6.5,13.8-20.4,7.3-31C939.6,615.9,932.2,612.1,924.7,612.1L924.7,612.1z"/>
				</g>
				<g>
					<path class="st3" d="M731.1,560.8c-8.2,0-15.7-4.2-20-11.1c-6.8-11-3.4-25.5,7.6-32.3c3.7-2.3,8-3.5,12.3-3.5
						c8.2,0,15.7,4.2,20,11.1c3.3,5.3,4.3,11.6,2.9,17.8c-1.4,6.1-5.2,11.3-10.5,14.6C739.7,559.6,735.5,560.8,731.1,560.8z"/>
					<path class="st4" d="M731.1,511.3v5c7.3,0,14,3.7,17.9,10c2.9,4.8,3.9,10.4,2.6,15.9c-1.3,5.5-4.6,10.1-9.4,13
						c-3.3,2.1-7.1,3.1-11,3.1c-7.3,0-14-3.7-17.9-10c-2.9-4.8-3.9-10.4-2.6-15.9c1.3-5.5,4.6-10.1,9.4-13c3.3-2.1,7.1-3.1,11-3.1
						L731.1,511.3 M731.1,511.3c-4.7,0-9.4,1.3-13.6,3.9c-12.2,7.6-16,23.6-8.4,35.8c4.9,8,13.4,12.3,22.1,12.3
						c4.7,0,9.4-1.3,13.6-3.9c12.2-7.6,16-23.6,8.4-35.8C748.3,515.7,739.8,511.3,731.1,511.3L731.1,511.3z"/>
				</g>
				<g>
					<path class="st3" d="M657.3,895.5c-55.8,0-111.2-14.1-160.2-40.8c-50.5-27.5-93.3-68.1-123.7-117.3
						c-46.8-75.8-61.4-165.2-40.9-251.9c20.4-86.7,73.4-160.3,149.2-207.1c9.6-5.9,19.5-11.4,29.6-16.3
						C395.3,370.8,370.6,550.4,455,686.9c62.1,100.5,169.9,160.5,288.2,160.5c0,0,0,0,0,0c40.2,0,79.5-7,116.9-20.9
						c-8.9,6.8-18.2,13.2-27.8,19.2C779.6,878.3,719.1,895.5,657.3,895.5C657.3,895.5,657.3,895.5,657.3,895.5z"/>
					<path class="st4" d="M497.7,271.9c-106.5,110.4-126.9,283.6-44.8,416.3C515.5,789.5,624,849.9,743.2,849.9
						c34.9,0,69.1-5.3,102-15.7c-4.6,3.2-9.4,6.3-14.2,9.3C778.7,875.9,718.6,893,657.3,893c-55.4,0-110.4-14-159-40.5
						c-24.7-13.4-47.5-30-68-49.2c-21.1-19.8-39.5-42.4-54.9-67.2c-23.5-38-38.9-79.5-45.6-123.3c-6.5-42.3-4.9-85,5-126.8
						c9.9-41.8,27.4-80.8,52.2-115.7c25.6-36.1,57.9-66.4,95.9-89.9C487.8,277.5,492.7,274.6,497.7,271.9 M525.2,252.9
						c-15.3,6.6-30.3,14.3-44.9,23.4c-157.8,97.6-206.7,304.6-109.1,462.5C434.8,841.5,544.7,898,657.3,898
						c60.3,0,121.3-16.2,176.4-50.3c14.6-9,28.3-19,41-29.8c-42.4,18.2-87.1,26.9-131.4,26.9c-112.6,0-222.6-56.6-286.1-159.3
						C368.6,542.3,400.6,358.6,525.2,252.9L525.2,252.9z"/>
				</g>
				<polygon class="st3" points="445,320.9 412.4,351.7 388.4,410 357.6,436.2 364.9,472.8 374.7,526.7 355.3,550.4 369.6,594.5 
					360.4,636.6 382.8,695.7 414.6,724.2 429.3,769.8 474,780.4 509.7,823 537.5,831.7 566,849.3 619.8,848.9 635.9,867.2 
					681.7,867.1 700.4,855.6 757.8,864.7 802.4,851.3 765.5,823 768.9,774.4 681.9,770.6 635.8,722.6 630.8,568.2 556.7,706.9 
					504.7,693.2 456.5,611.3 476.9,558.7 445.2,526.6 486.9,510.2 539.7,538.7 533.7,502.4 498.3,483.2 468.4,480.5 452,427.2 
					516,340.6 475.9,368.9 471.7,337.4 492.9,284.3 473.4,296.4 				"/>
				<g>
					<path class="st3" d="M410.4,667.7c-9.5,0-18.2-4.8-23.2-12.9c-3.8-6.2-5-13.5-3.3-20.6c1.7-7.1,6-13.1,12.2-16.9
						c4.3-2.7,9.3-4.1,14.3-4.1c9.5,0,18.2,4.8,23.2,12.9c7.9,12.8,3.9,29.6-8.8,37.5C420.4,666.3,415.5,667.7,410.4,667.7z"/>
					<g>
						<path class="st4" d="M410.4,611.4v3.5c8.9,0,17,4.5,21.7,12.1c3.6,5.8,4.7,12.6,3.1,19.3c-1.6,6.6-5.6,12.3-11.4,15.8
							c-4,2.5-8.7,3.8-13.4,3.8c-8.9,0-17-4.5-21.7-12.1c-7.4-12-3.7-27.7,8.3-35.1c4-2.5,8.7-3.8,13.4-3.8L410.4,611.4
							 M410.4,611.4c-5.2,0-10.5,1.4-15.2,4.3c-13.6,8.4-17.8,26.3-9.4,39.9c5.5,8.9,15,13.8,24.7,13.8c5.2,0,10.5-1.4,15.2-4.3
							c13.6-8.4,17.8-26.3,9.4-39.9C429.6,616.3,420.1,611.4,410.4,611.4L410.4,611.4z"/>
					</g>
				</g>
				<g>
					<path class="st3" d="M533.6,806.8c-11.4,0-21.9-5.8-27.9-15.5c-4.6-7.4-6-16.2-4-24.7c2-8.5,7.2-15.7,14.7-20.3
						c5.2-3.2,11.1-4.9,17.2-4.9c11.4,0,21.9,5.8,27.9,15.5c4.6,7.4,6,16.2,4,24.7c-2,8.5-7.2,15.7-14.7,20.3
						C545.6,805.2,539.7,806.8,533.6,806.8z"/>
					<g>
						<path class="st4" d="M533.6,739.6v3.5c10.8,0,20.7,5.5,26.4,14.7c4.4,7,5.7,15.4,3.8,23.4c-1.9,8.1-6.8,14.9-13.9,19.3
							c-4.9,3-10.5,4.6-16.3,4.6c-10.8,0-20.7-5.5-26.4-14.7c-4.4-7-5.7-15.4-3.8-23.4c1.9-8.1,6.8-14.9,13.9-19.3
							c4.9-3,10.5-4.6,16.3-4.6L533.6,739.6 M533.6,739.6c-6.2,0-12.5,1.7-18.1,5.2c-16.2,10-21.2,31.3-11.2,47.5
							c6.5,10.6,17.8,16.4,29.4,16.4c6.2,0,12.5-1.7,18.1-5.2c16.2-10,21.2-31.3,11.2-47.5C556.4,745.4,545.1,739.6,533.6,739.6
							L533.6,739.6z"/>
					</g>
				</g>
				<g>
					<path class="st3" d="M403.4,491.4c-6.4,0-12.2-3.2-15.5-8.7c-2.6-4.1-3.4-9-2.2-13.8c1.1-4.7,4-8.8,8.2-11.3
						c2.9-1.8,6.2-2.7,9.6-2.7c6.4,0,12.2,3.2,15.5,8.7c2.6,4.1,3.4,9,2.2,13.8c-1.1,4.7-4,8.8-8.2,11.3
						C410.1,490.4,406.7,491.4,403.4,491.4z"/>
					<g>
						<path class="st4" d="M403.3,456.6L403.3,456.6c5.8,0,11,2.9,14.1,7.8c2.3,3.7,3,8.2,2,12.5s-3.6,7.9-7.4,10.2
							c-2.6,1.6-5.6,2.5-8.7,2.5c-5.8,0-11-2.9-14.1-7.8c-2.3-3.7-3-8.2-2-12.5s3.6-7.9,7.4-10.2
							C397.3,457.5,400.3,456.6,403.3,456.6 M403.3,453.1c-3.6,0-7.2,1-10.5,3c-9.4,5.8-12.3,18.1-6.5,27.5c3.8,6.1,10.3,9.5,17,9.5
							c3.6,0,7.2-1,10.5-3c9.4-5.8,12.3-18.1,6.5-27.5C416.6,456.5,410,453.1,403.3,453.1L403.3,453.1z"/>
					</g>
				</g>
			</g>
		</g>
	</g>
</g>
</svg>
